<?xml version="1.0" encoding="UTF-8"?>
<!DOCTYPE svg PUBLIC "-//W3C//DTD SVG 1.1//EN" "http://www.w3.org/Graphics/SVG/1.1/DTD/svg11.dtd">
<!-- Creator: CorelDRAW X8 -->
<svg xmlns="http://www.w3.org/2000/svg" xml:space="preserve" width="230mm" height="115.5mm" version="1.1" style="shape-rendering:geometricPrecision; text-rendering:geometricPrecision; image-rendering:optimizeQuality; fill-rule:evenodd; clip-rule:evenodd"
viewBox="0 0 23000 11550"
 xmlns:xlink="http://www.w3.org/1999/xlink">
 <defs>
  <style type="text/css">
   <![CDATA[
    .fil0 {fill:#4C549E;fill-rule:nonzero}
    .fil1 {fill:#4C549E;fill-rule:nonzero}
   ]]>
  </style>
 </defs>
 <g id="Layer_x0020_1">
  <metadata id="CorelCorpID_0Corel-Layer"/>
  <polygon class="fil0" points="1734,336 3766,6019 5777,336 7311,336 4380,7850 3152,7850 199,336 "/>
  <polygon id="1" class="fil0" points="8116,7850 8116,347 9576,347 9576,3913 12730,336 14339,336 11460,3670 14519,7850 12878,7850 10539,4601 9576,5607 9576,7850 "/>
  <polygon id="2" class="fil0" points="21324,7850 21324,2876 19387,6580 18593,6580 16656,2876 16656,7850 15196,7850 15196,336 16762,336 18985,4612 21228,336 22784,336 22784,7850 "/>
  <polygon class="fil1" points="5438,10820 4672,8986 4856,8986 5533,10644 6214,8986 6387,8986 5621,10820 "/>
  <polygon id="1" class="fil1" points="8062,10820 7346,9839 6912,10238 6912,10820 6736,10820 6736,8245 6912,8245 6912,10044 8027,8989 8232,8989 7466,9733 8256,10820 "/>
  <path id="2" class="fil1" d="M12179 10820l-176 0 0 -1023c0,-233 -36,-405 -108,-515 -72,-111 -181,-166 -330,-166 -75,0 -147,14 -215,42 -68,29 -130,68 -187,119 -56,50 -105,110 -146,179 -41,70 -74,147 -97,232l0 1132 -177 0 0 -1023c0,-235 -35,-408 -105,-517 -71,-109 -180,-164 -329,-164 -75,0 -146,14 -213,41 -67,27 -129,65 -185,116 -57,51 -107,111 -150,180 -44,69 -77,146 -101,231l0 1136 -176 0 0 -1834 166 0 0 437c75,-148 174,-263 296,-346 122,-82 258,-123 406,-123 155,0 281,46 377,137 97,92 154,212 173,360 174,-331 414,-497 720,-497 200,0 343,71 428,213 86,143 129,342 129,598l0 1055z"/>
  <path id="3" class="fil1" d="M13280 10855c-391,0 -586,-270 -586,-811l0 -1058 177 0 0 1033c0,452 154,678 462,678 77,0 153,-14 226,-41 72,-27 141,-65 204,-113 64,-48 120,-106 168,-175 48,-68 86,-143 114,-225l0 -1157 177 0 0 1587c0,59 24,88 74,88l0 159c-12,2 -22,4 -32,4 -9,0 -16,0 -21,0 -47,0 -89,-15 -125,-45 -37,-29 -55,-68 -55,-118l0 -275c-80,148 -190,263 -330,346 -140,82 -291,123 -453,123z"/>
  <path id="4" class="fil1" d="M15365 10855c-141,0 -277,-23 -406,-70 -129,-47 -242,-118 -339,-212l89 -120c98,89 201,155 307,198 105,42 222,63 349,63 160,0 288,-33 386,-100 98,-67 146,-161 146,-281 0,-56 -12,-104 -37,-143 -24,-39 -61,-71 -111,-99 -49,-27 -110,-51 -183,-72 -73,-21 -158,-43 -254,-67 -104,-23 -194,-47 -270,-70 -76,-24 -139,-52 -189,-85 -49,-33 -86,-73 -111,-120 -25,-47 -37,-107 -37,-180 0,-92 18,-172 53,-240 35,-68 84,-124 146,-169 63,-45 134,-78 216,-101 81,-22 167,-33 259,-33 143,0 270,24 381,72 110,48 196,110 257,185l-98 96c-62,-71 -141,-124 -238,-159 -98,-35 -202,-53 -313,-53 -68,0 -132,7 -192,21 -60,14 -112,37 -157,67 -45,31 -80,70 -106,118 -26,48 -39,106 -39,171 0,54 9,98 27,131 18,33 46,61 85,85 38,23 88,44 149,61 62,18 135,37 219,59 115,28 218,55 307,81 89,26 164,57 224,95 60,38 106,82 138,134 31,52 47,118 47,198 0,164 -64,295 -192,393 -128,97 -299,146 -513,146z"/>
  <path id="5" class="fil1" d="M16480 10820l0 -1834 176 0 0 1834 -176 0zm0 -2251l0 -324 176 0 0 324 -176 0z"/>
  <path id="6" class="fil1" d="M17083 9896c0,-130 22,-252 67,-367 45,-115 107,-215 187,-300 80,-85 175,-152 286,-201 110,-50 231,-74 363,-74 167,0 314,37 441,113 127,75 222,180 286,314l-173 56c-54,-101 -131,-180 -231,-238 -100,-58 -210,-86 -330,-86 -101,0 -195,20 -282,60 -87,39 -163,95 -228,165 -65,71 -116,154 -153,249 -38,95 -57,198 -57,309 0,110 20,214 58,312 39,98 91,182 156,254 64,72 141,129 229,171 88,42 182,64 280,64 64,0 127,-10 189,-29 62,-19 120,-43 173,-74 53,-30 99,-66 138,-107 38,-42 65,-84 79,-129l173 49c-24,64 -60,123 -108,178 -48,56 -105,103 -171,143 -66,40 -139,71 -219,94 -80,22 -162,33 -247,33 -129,0 -249,-25 -359,-76 -111,-50 -207,-120 -288,-208 -81,-88 -145,-190 -190,-305 -46,-115 -69,-239 -69,-370z"/>
 </g>
</svg>
